<svg xmlns="http://www.w3.org/2000/svg" viewBox="0 0 232.98 127.62"><defs><style>.cls-1{fill:#003a84;}.cls-2{fill:#fff;}</style></defs><g id="Capa_2" data-name="Capa 2"><g id="Capa_1-2" data-name="Capa 1"><path class="cls-1" d="M0,0H233a0,0,0,0,1,0,0V112.43a15.18,15.18,0,0,1-15.18,15.18H15.18A15.18,15.18,0,0,1,0,112.43V0A0,0,0,0,1,0,0Z"/><path class="cls-2" d="M65.67,36.88H31.13a6.11,6.11,0,0,0-1.69.24,7.74,7.74,0,0,0-5.38,5.33l-2.3,9.36a1.13,1.13,0,0,0,1,1.46H37.93a3.94,3.94,0,0,0,0-7.87l-8.49,0H28.37l-.68,2.9H37.92a1.07,1.07,0,0,1,0,2.14l-8.48,0H24c-.28,0-.44-.36-.38-.68l1.59-6.45a6.42,6.42,0,0,1,4.23-4.84,6,6,0,0,1,1.66-.23H65.82a4.81,4.81,0,0,1,4.91,6.24L66.06,64a7.25,7.25,0,0,1-2,3.67,5.67,5.67,0,0,1-4,1.58H25a4.65,4.65,0,0,1-4.15-2.23,5.19,5.19,0,0,1-.52-3.84l.52-2.12.87-3.54a.69.69,0,0,1,.58-.51H35.72a1.11,1.11,0,0,1,0,2.22H25.08l-.67,2.8H35.86a3.94,3.94,0,0,0,0-7.87H22.47a1.86,1.86,0,0,0-1.61,1.22.29.29,0,0,0,0,.09l-1.9,7.71a6.26,6.26,0,0,0,1.92,5.89,5.74,5.74,0,0,0,4,1.5H60a7.28,7.28,0,0,0,4-1.16A7.4,7.4,0,0,0,67.1,65l5-20.48C73.08,40.4,70.12,36.88,65.67,36.88Z"/><path class="cls-2" d="M55.8,59.26h-.31l-10.63,0,0,.09-.64,2.82h11.7a4,4,0,0,0,4-4,4,4,0,0,0-2.2-3.55,3.86,3.86,0,0,0-1.83-.43,2.21,2.21,0,0,1-.37,0,4.74,4.74,0,0,1,0-9.45,1.77,1.77,0,0,1,.33,0H64l2.94,0,.69-2.91H55.82a1.77,1.77,0,0,0-.33,0,7.64,7.64,0,0,0,0,15.26h.32a1.12,1.12,0,1,1,0,2.23Z"/><path class="cls-2" d="M37.88,41.69H29.29l-.71,2.88h9.35a4.77,4.77,0,0,1,.47,9.51,4.82,4.82,0,0,1-2.61,8.87H24.2l-.72,2.87H35.8a7.72,7.72,0,0,0,7.7-7.71,7.5,7.5,0,0,0-.61-3,7.54,7.54,0,0,0,1.94-2.67,7.48,7.48,0,0,0,0-6.19A7.6,7.6,0,0,0,37.88,41.69Z"/><path class="cls-2" d="M55.49,48.37a.93.93,0,0,1,.45-.1H66.07l.71-2.8H55.49a3.93,3.93,0,0,0,0,7.84h.37a4.84,4.84,0,0,1,4.84,4.82,4.8,4.8,0,0,1-3,4.46,4.54,4.54,0,0,1-1.81.37h-.39l-10.66,0h-.78l-.76,2.85H56a8.09,8.09,0,0,0,1.72-.2,7.64,7.64,0,0,0,0-14.89A7.5,7.5,0,0,0,56,50.49h0a1.24,1.24,0,0,1-.45-.1,1.1,1.1,0,0,1-.66-1A1.12,1.12,0,0,1,55.49,48.37Z"/><path class="cls-2" d="M82.19,37.46H92.54c3.06,0,5.29.66,6.63,1.94,1.8,1.45,2.19,3.82,1.59,6.51a10.11,10.11,0,0,1-5.45,6.68c4.88,1.85,4,6.43,3.69,7.83a11.75,11.75,0,0,1-5.06,7.31c-3,2-5.06,2.28-9.53,2.28H74.7Zm.17,26.79h4.48a8.09,8.09,0,0,0,3-.48A5,5,0,0,0,93,60c.44-1.89-.23-3-1.39-3.61A7.1,7.1,0,0,0,88.53,56H84.27Zm3.17-13.77h3.54A7.9,7.9,0,0,0,91.9,50a4.48,4.48,0,0,0,2.55-3.25c.38-1.68-.25-2.69-1-3.08a5.69,5.69,0,0,0-2.7-.49H87.22Z"/><path class="cls-2" d="M107.53,37.46H125.2l-1.31,5.76H112.56l-1.7,7.39H122l-1.36,5.77H109.51l-1.81,7.87H119L117.72,70H100Z"/><path class="cls-2" d="M128.62,59.9c-.82,4.4,1.86,5.23,3.23,5.23a5.78,5.78,0,0,0,5.28-4.31c.61-2.77-1.48-3.48-5.44-5.28-2.17-.88-7.22-2.9-5.8-9.06s7.56-9.64,12.67-9.64c4.18,0,9.17,2.29,7.78,9.51h-6.26c.08-1.5.12-4-3-4a4.94,4.94,0,0,0-4.74,3.7c-.6,2.42,1,3,5.77,5.32,4.28,2.16,6.42,4.53,5.38,9.15a12.68,12.68,0,0,1-12.87,10.12c-7.16,0-9.83-4.44-8.31-10.73Z"/><path class="cls-2" d="M177.51,59.1c-3.45,6.73-10.72,11.53-18.09,11.53-9.63,0-14.68-7.87-12.6-16.94,2-8.66,10.4-16.85,20.36-16.85,9.07,0,12.6,6.95,12.74,11.71h-6.69a7.3,7.3,0,0,0-7.45-5.94c-6.13,0-11.3,5.32-12.61,11.08-1.37,5.94,1.56,11.18,7.56,11.18,5.63,0,9.22-4.58,10.09-5.77Z"/><path class="cls-2" d="M180.53,54c2.41-10.43,11.73-17.16,20.51-17.16,9.54,0,14.77,7.66,12.69,16.9s-10.91,16.89-20.54,16.89S178.56,62.76,180.53,54Zm6.45-.26c-1.37,5.94,1.56,11.13,7.7,11.13,6.39,0,11.44-5.72,12.65-11.09s-1.18-11.17-7.61-11.17S188.29,48,187,53.69Z"/><path class="cls-2" d="M40.76,86.39a4,4,0,0,1-3.52,2.24,2.65,2.65,0,0,1-2.7-3.29,4.1,4.1,0,0,1,3.92-3.27,2.54,2.54,0,0,1,2.67,2.27H39.79a1.54,1.54,0,0,0-1.56-1.15,2.57,2.57,0,0,0-2.41,2.15,1.68,1.68,0,0,0,1.63,2.17,2.49,2.49,0,0,0,2-1.12Z"/><path class="cls-2" d="M42,86.15a3.07,3.07,0,0,1,3-2.47,2,2,0,0,1,2,2.48,3.07,3.07,0,0,1-3,2.49,2,2,0,0,1-2-2.49Zm1.12,0a1.13,1.13,0,0,0,1.13,1.43,1.76,1.76,0,0,0,1.65-1.44,1.13,1.13,0,0,0-1.12-1.44,1.75,1.75,0,0,0-1.66,1.44Z"/><path class="cls-2" d="M49,83.82h1c0,.2-.08.4-.13.62a1.89,1.89,0,0,1,1.61-.77c1.53,0,1.6,1.18,1.44,2l-.52,2.83H51.33L51.8,86c.13-.7,0-1.24-.78-1.24a1.28,1.28,0,0,0-1.29,1.2l-.48,2.59H48.13Z"/><path class="cls-2" d="M56.86,85.08a.41.41,0,0,0-.06-.34.47.47,0,0,0-.42-.16.62.62,0,0,0-.64.47c0,.3.27.46.68.59.72.2,1.49.43,1.31,1.43a2,2,0,0,1-2.07,1.59c-.72,0-1.64-.38-1.51-1.52h1.12a.52.52,0,0,0,.57.61.74.74,0,0,0,.75-.55c.07-.4-.26-.51-1.06-.81-.6-.2-1.05-.55-.93-1.22a2,2,0,0,1,2-1.5c.63,0,1.52.29,1.4,1.41Z"/><path class="cls-2" d="M60,84.68h-.78l.16-.86h.78l.3-1.63h1.12l-.3,1.63h.8l-.16.86h-.8l-.71,3.83H59.26Z"/><path class="cls-2" d="M63.34,83.82H64.4l-.12.61a1.66,1.66,0,0,1,1.44-.76l-.21,1.13h-.05A1.27,1.27,0,0,0,64.06,86l-.47,2.53H62.47Z"/><path class="cls-2" d="M70.48,88.51h-1l.12-.62a1.89,1.89,0,0,1-1.61.77c-1.54,0-1.61-1.18-1.46-2L67,83.82h1.12l-.48,2.55c-.13.7,0,1.24.8,1.23a1.27,1.27,0,0,0,1.3-1.19l.48-2.59h1.12Z"/><path class="cls-2" d="M73.52,88.33l-.93-4.51h1.19l.57,3.12,1.71-3.12h1.2l-3.65,6.33h-1.2Z"/><path class="cls-2" d="M78.56,86.54A1,1,0,0,0,79.7,87.7a1.48,1.48,0,0,0,1.24-.63H82.1a3.64,3.64,0,0,1-1.16,1.18,2.77,2.77,0,0,1-1.42.41,2,2,0,0,1-2-2.48,3.11,3.11,0,0,1,2.92-2.51,2,2,0,0,1,1.62.72,2.24,2.24,0,0,1,.3,2.15Zm2.83-.86a1,1,0,0,0-1.14-1.06,1.6,1.6,0,0,0-1.52,1.06Z"/><path class="cls-2" d="M84.34,83.82h1c0,.2-.07.4-.12.62a1.87,1.87,0,0,1,1.6-.77c1.53,0,1.6,1.18,1.45,2l-.52,2.83H86.68L87.15,86c.13-.7,0-1.24-.79-1.24a1.28,1.28,0,0,0-1.29,1.2l-.48,2.59H83.47Z"/><path class="cls-2" d="M94.34,88.51H93.27l.13-.67a2.12,2.12,0,0,1-1.76.82,1.93,1.93,0,0,1-1.92-2.5,3,3,0,0,1,2.83-2.49,1.47,1.47,0,0,1,1.43.76l.12-.69.29-1.55h1.12Zm-3.5-2.35A1.14,1.14,0,0,0,92,87.6a1.79,1.79,0,0,0,1.12-.42,1.72,1.72,0,0,0,.59-1,1.16,1.16,0,0,0-.24-1,1.14,1.14,0,0,0-.94-.41,1.77,1.77,0,0,0-1.71,1.43Z"/><path class="cls-2" d="M96.3,86.15a3.07,3.07,0,0,1,3-2.47,2,2,0,0,1,2,2.48,3.07,3.07,0,0,1-3,2.49,2,2,0,0,1-2-2.49Zm1.12,0a1.12,1.12,0,0,0,1.12,1.43,1.74,1.74,0,0,0,1.65-1.44,1.12,1.12,0,0,0-1.12-1.44,1.74,1.74,0,0,0-1.65,1.44Z"/><path class="cls-2" d="M110.51,88a3.09,3.09,0,0,1-.74,1.65,3.28,3.28,0,0,1-2.34,1c-1.46,0-2-.87-2-1.6h1.3a.79.79,0,0,0,.39.48,1.19,1.19,0,0,0,.59.16,1.69,1.69,0,0,0,1.65-1.41l.08-.39a2.07,2.07,0,0,1-1.68.84,1.93,1.93,0,0,1-1.94-2.47,3,3,0,0,1,2.87-2.51,1.39,1.39,0,0,1,1.37.77l.12-.63h1.13Zm-3.59-1.8a1.13,1.13,0,0,0,1.14,1.44,1.56,1.56,0,0,0,1.07-.4,1.76,1.76,0,0,0,.59-1,1.44,1.44,0,0,0-.16-1,1.06,1.06,0,0,0-1-.47,1.75,1.75,0,0,0-1.67,1.43Z"/><path class="cls-2" d="M113,83.82h1.06l-.12.61a1.7,1.7,0,0,1,1.45-.76l-.21,1.13h-.06a1.28,1.28,0,0,0-1.4,1.18l-.47,2.53h-1.12Z"/><path class="cls-2" d="M120.38,88.51h-1.12l.13-.67a2.15,2.15,0,0,1-1.73.82,1.92,1.92,0,0,1-1.93-2.5,3,3,0,0,1,2.85-2.49,1.42,1.42,0,0,1,1.43.83l.13-.68h1.12Zm-3.53-2.32A1.13,1.13,0,0,0,118,87.61a1.65,1.65,0,0,0,1.39-.75,1.87,1.87,0,0,0,.3-.66,1.34,1.34,0,0,0,0-.66,1.09,1.09,0,0,0-1.15-.82,1.76,1.76,0,0,0-1.69,1.46Z"/><path class="cls-2" d="M123,83.82h1.06c0,.2-.08.4-.13.62a1.87,1.87,0,0,1,1.6-.77c1.53,0,1.6,1.18,1.45,2l-.52,2.83h-1.12l.47-2.55c.13-.7,0-1.24-.79-1.24a1.28,1.28,0,0,0-1.29,1.2l-.48,2.59h-1.12Z"/><path class="cls-2" d="M133,88.51h-1.07l.13-.67a2.12,2.12,0,0,1-1.76.82,1.92,1.92,0,0,1-1.91-2.5,3,3,0,0,1,2.82-2.49,1.46,1.46,0,0,1,1.43.76l.12-.69.29-1.55h1.12Zm-3.49-2.35a1.13,1.13,0,0,0,1.17,1.44,1.79,1.79,0,0,0,1.12-.42,1.73,1.73,0,0,0,.6-1,1.23,1.23,0,0,0-.24-1,1.17,1.17,0,0,0-.94-.41,1.75,1.75,0,0,0-1.71,1.43Z"/><path class="cls-2" d="M136,86.54a1,1,0,0,0,1.14,1.16,1.48,1.48,0,0,0,1.24-.63h1.16a3.57,3.57,0,0,1-1.17,1.18,2.72,2.72,0,0,1-1.42.41,2,2,0,0,1-2-2.48,3.1,3.1,0,0,1,2.92-2.51,2,2,0,0,1,1.62.72,2.24,2.24,0,0,1,.29,2.15Zm2.83-.86a1,1,0,0,0-1.14-1.06,1.6,1.6,0,0,0-1.52,1.06Z"/><path class="cls-2" d="M143.56,85.08a.5.5,0,0,0-.06-.34.47.47,0,0,0-.42-.16.61.61,0,0,0-.64.47c-.05.3.26.46.68.59.72.2,1.49.43,1.31,1.43a2,2,0,0,1-2.07,1.59c-.73,0-1.64-.38-1.51-1.52H142a.52.52,0,0,0,.57.61.73.73,0,0,0,.74-.55c.08-.4-.25-.51-1.06-.81-.6-.2-1-.55-.93-1.22a2,2,0,0,1,2-1.5c.63,0,1.52.29,1.4,1.41Z"/><path class="cls-2" d="M149.73,83.82h1.06l-.12.59a1.94,1.94,0,0,1,1.51-.74,1.29,1.29,0,0,1,1.07.48,1.82,1.82,0,0,1,.19.43,2.55,2.55,0,0,1,.43-.45,2.08,2.08,0,0,1,1.28-.46,1.5,1.5,0,0,1,1.17.47c.34.45.35.83.18,1.8L156,88.51H154.9l.47-2.53a1.59,1.59,0,0,0,0-.87c-.08-.23-.27-.39-.67-.39a1.07,1.07,0,0,0-.88.43,1.66,1.66,0,0,0-.31.79L153,88.51h-1.12l.48-2.57a1.71,1.71,0,0,0,0-.78.68.68,0,0,0-.69-.44,1.06,1.06,0,0,0-.88.44,1.9,1.9,0,0,0-.34.81L150,88.51h-1.12Z"/><path class="cls-2" d="M157.94,86.15a3.07,3.07,0,0,1,3-2.47A2,2,0,0,1,163,86.16a3.09,3.09,0,0,1-3,2.49,2,2,0,0,1-2.05-2.49Zm1.12,0a1.13,1.13,0,0,0,1.13,1.43,1.75,1.75,0,0,0,1.65-1.44,1.13,1.13,0,0,0-1.12-1.44,1.75,1.75,0,0,0-1.66,1.44Z"/><path class="cls-2" d="M164.91,83.82H166l-.11.59a1.92,1.92,0,0,1,1.51-.74,1.26,1.26,0,0,1,1.06.48,1.52,1.52,0,0,1,.2.43,2.55,2.55,0,0,1,.43-.45,2.08,2.08,0,0,1,1.28-.46,1.48,1.48,0,0,1,1.16.47c.35.45.36.83.18,1.8l-.48,2.57h-1.12l.48-2.53a1.59,1.59,0,0,0,0-.87c-.08-.23-.27-.39-.67-.39a1.1,1.1,0,0,0-.89.43,1.75,1.75,0,0,0-.3.79l-.48,2.57h-1.12l.48-2.57a1.86,1.86,0,0,0,0-.78.68.68,0,0,0-.7-.44,1.07,1.07,0,0,0-.88.44,2,2,0,0,0-.33.81l-.47,2.54H164Z"/><path class="cls-2" d="M174.13,86.54a1,1,0,0,0,1.14,1.16,1.48,1.48,0,0,0,1.24-.63h1.16a3.57,3.57,0,0,1-1.17,1.18,2.72,2.72,0,0,1-1.42.41,2,2,0,0,1-2-2.48A3.1,3.1,0,0,1,176,83.67a2,2,0,0,1,1.61.72,2.22,2.22,0,0,1,.3,2.15Zm2.83-.86a1,1,0,0,0-1.14-1.06,1.6,1.6,0,0,0-1.52,1.06Z"/><path class="cls-2" d="M179.91,83.82H181c0,.2-.08.4-.13.62a1.89,1.89,0,0,1,1.61-.77c1.53,0,1.6,1.18,1.44,2l-.52,2.83h-1.12l.47-2.55c.13-.7,0-1.24-.78-1.24a1.28,1.28,0,0,0-1.29,1.2l-.48,2.59H179Z"/><path class="cls-2" d="M186.12,84.68h-.78l.17-.86h.77l.3-1.63h1.12l-.3,1.63h.81l-.17.86h-.8l-.71,3.83h-1.12Z"/><path class="cls-2" d="M188.61,86.15a3.07,3.07,0,0,1,3-2.47,2,2,0,0,1,2,2.48,3.07,3.07,0,0,1-3,2.49,2,2,0,0,1-2-2.49Zm1.12,0a1.13,1.13,0,0,0,1.13,1.43,1.74,1.74,0,0,0,1.65-1.44,1.13,1.13,0,0,0-1.12-1.44,1.76,1.76,0,0,0-1.66,1.44Z"/><path class="cls-2" d="M197.38,85.08a.45.45,0,0,0-.06-.34.47.47,0,0,0-.42-.16.61.61,0,0,0-.64.47c0,.3.26.46.68.59.72.2,1.49.43,1.31,1.43a2,2,0,0,1-2.07,1.59c-.72,0-1.64-.38-1.51-1.52h1.12a.52.52,0,0,0,.57.61.75.75,0,0,0,.75-.55c.07-.4-.26-.51-1.06-.81-.6-.2-1.05-.55-.94-1.22a2,2,0,0,1,2-1.5c.63,0,1.52.29,1.4,1.41Z"/></g></g></svg>